<mxfile host="app.diagrams.net" modified="2022-07-24T11:37:34.093Z" agent="5.0 (Windows NT 10.0; Win64; x64) AppleWebKit/537.36 (KHTML, like Gecko) Chrome/103.0.0.0 Safari/537.36" etag="DCva0LafNgc-lCiboDm_" version="20.2.0" type="github">
  <diagram id="6a731a19-8d31-9384-78a2-239565b7b9f0" name="Page-1">
    <mxGraphModel dx="1422" dy="2408" grid="1" gridSize="10" guides="1" tooltips="1" connect="1" arrows="1" fold="1" page="1" pageScale="1" pageWidth="1169" pageHeight="827" background="none" math="0" shadow="0">
      <root>
        <mxCell id="0" />
        <mxCell id="1" parent="0" />
        <mxCell id="S8iGS64HaeXEKzcs_TdU-1784" value="https://manekicafe.ru/" style="rounded=1;whiteSpace=wrap;html=1;" vertex="1" parent="1">
          <mxGeometry x="30" y="354" width="140" height="60" as="geometry" />
        </mxCell>
        <mxCell id="S8iGS64HaeXEKzcs_TdU-1786" value="Меню" style="rounded=1;whiteSpace=wrap;html=1;" vertex="1" parent="1">
          <mxGeometry x="200" y="220" width="120" height="60" as="geometry" />
        </mxCell>
        <mxCell id="S8iGS64HaeXEKzcs_TdU-1804" value="" style="edgeStyle=orthogonalEdgeStyle;rounded=0;orthogonalLoop=1;jettySize=auto;html=1;" edge="1" parent="1" source="S8iGS64HaeXEKzcs_TdU-1787" target="S8iGS64HaeXEKzcs_TdU-1801">
          <mxGeometry relative="1" as="geometry" />
        </mxCell>
        <mxCell id="S8iGS64HaeXEKzcs_TdU-1787" value="О кафе" style="rounded=1;whiteSpace=wrap;html=1;" vertex="1" parent="1">
          <mxGeometry x="200" y="130" width="120" height="60" as="geometry" />
        </mxCell>
        <mxCell id="S8iGS64HaeXEKzcs_TdU-1788" value="О доставке&amp;nbsp;" style="rounded=1;whiteSpace=wrap;html=1;" vertex="1" parent="1">
          <mxGeometry x="200" y="310" width="120" height="60" as="geometry" />
        </mxCell>
        <mxCell id="S8iGS64HaeXEKzcs_TdU-1789" value="Акции&amp;nbsp;" style="rounded=1;whiteSpace=wrap;html=1;" vertex="1" parent="1">
          <mxGeometry x="200" y="400" width="120" height="60" as="geometry" />
        </mxCell>
        <mxCell id="S8iGS64HaeXEKzcs_TdU-1790" value="Отзывы" style="rounded=1;whiteSpace=wrap;html=1;" vertex="1" parent="1">
          <mxGeometry x="200" y="490" width="120" height="60" as="geometry" />
        </mxCell>
        <mxCell id="S8iGS64HaeXEKzcs_TdU-1791" value="Контакты&amp;nbsp;" style="rounded=1;whiteSpace=wrap;html=1;" vertex="1" parent="1">
          <mxGeometry x="200" y="580" width="120" height="60" as="geometry" />
        </mxCell>
        <mxCell id="S8iGS64HaeXEKzcs_TdU-1792" value="" style="endArrow=classic;html=1;rounded=0;edgeStyle=orthogonalEdgeStyle;entryX=0;entryY=0.5;entryDx=0;entryDy=0;" edge="1" parent="1" target="S8iGS64HaeXEKzcs_TdU-1787">
          <mxGeometry width="50" height="50" relative="1" as="geometry">
            <mxPoint x="50" y="354" as="sourcePoint" />
            <mxPoint x="90" y="160" as="targetPoint" />
            <Array as="points">
              <mxPoint x="50" y="354" />
              <mxPoint x="50" y="160" />
            </Array>
          </mxGeometry>
        </mxCell>
        <mxCell id="S8iGS64HaeXEKzcs_TdU-1793" value="" style="endArrow=classic;html=1;rounded=0;edgeStyle=orthogonalEdgeStyle;entryX=0;entryY=0.5;entryDx=0;entryDy=0;" edge="1" parent="1" target="S8iGS64HaeXEKzcs_TdU-1786">
          <mxGeometry width="50" height="50" relative="1" as="geometry">
            <mxPoint x="80" y="354" as="sourcePoint" />
            <mxPoint x="160" y="230" as="targetPoint" />
            <Array as="points">
              <mxPoint x="80" y="354" />
              <mxPoint x="80" y="250" />
            </Array>
          </mxGeometry>
        </mxCell>
        <mxCell id="S8iGS64HaeXEKzcs_TdU-1794" value="" style="endArrow=classic;html=1;rounded=0;edgeStyle=orthogonalEdgeStyle;exitX=0.5;exitY=0;exitDx=0;exitDy=0;entryX=0;entryY=0.5;entryDx=0;entryDy=0;" edge="1" parent="1" source="S8iGS64HaeXEKzcs_TdU-1784" target="S8iGS64HaeXEKzcs_TdU-1788">
          <mxGeometry width="50" height="50" relative="1" as="geometry">
            <mxPoint x="110" y="436" as="sourcePoint" />
            <mxPoint x="190" y="332" as="targetPoint" />
          </mxGeometry>
        </mxCell>
        <mxCell id="S8iGS64HaeXEKzcs_TdU-1796" value="" style="endArrow=classic;html=1;rounded=0;edgeStyle=orthogonalEdgeStyle;exitX=0.5;exitY=1;exitDx=0;exitDy=0;" edge="1" parent="1" source="S8iGS64HaeXEKzcs_TdU-1784">
          <mxGeometry width="50" height="50" relative="1" as="geometry">
            <mxPoint x="90" y="414" as="sourcePoint" />
            <mxPoint x="200" y="430" as="targetPoint" />
            <Array as="points">
              <mxPoint x="100" y="430" />
            </Array>
          </mxGeometry>
        </mxCell>
        <mxCell id="S8iGS64HaeXEKzcs_TdU-1799" value="" style="endArrow=classic;html=1;rounded=0;edgeStyle=orthogonalEdgeStyle;entryX=0;entryY=0.5;entryDx=0;entryDy=0;" edge="1" parent="1" target="S8iGS64HaeXEKzcs_TdU-1790">
          <mxGeometry width="50" height="50" relative="1" as="geometry">
            <mxPoint x="80" y="414" as="sourcePoint" />
            <mxPoint x="80" y="520" as="targetPoint" />
            <Array as="points">
              <mxPoint x="80" y="520" />
            </Array>
          </mxGeometry>
        </mxCell>
        <mxCell id="S8iGS64HaeXEKzcs_TdU-1800" value="" style="endArrow=classic;html=1;rounded=0;edgeStyle=orthogonalEdgeStyle;entryX=0;entryY=0.5;entryDx=0;entryDy=0;" edge="1" parent="1" target="S8iGS64HaeXEKzcs_TdU-1791">
          <mxGeometry width="50" height="50" relative="1" as="geometry">
            <mxPoint x="50" y="414" as="sourcePoint" />
            <mxPoint x="50" y="620" as="targetPoint" />
            <Array as="points">
              <mxPoint x="50" y="610" />
            </Array>
          </mxGeometry>
        </mxCell>
        <mxCell id="S8iGS64HaeXEKzcs_TdU-1801" value="Видеопрезентация" style="rounded=1;whiteSpace=wrap;html=1;" vertex="1" parent="1">
          <mxGeometry x="360" y="130" width="120" height="60" as="geometry" />
        </mxCell>
        <mxCell id="S8iGS64HaeXEKzcs_TdU-1805" value="Описание кафе&amp;nbsp;" style="rounded=1;whiteSpace=wrap;html=1;" vertex="1" parent="1">
          <mxGeometry x="360" y="60" width="120" height="60" as="geometry" />
        </mxCell>
        <mxCell id="S8iGS64HaeXEKzcs_TdU-1812" value="" style="edgeStyle=orthogonalEdgeStyle;rounded=0;orthogonalLoop=1;jettySize=auto;html=1;" edge="1" parent="1" source="S8iGS64HaeXEKzcs_TdU-1806" target="S8iGS64HaeXEKzcs_TdU-1811">
          <mxGeometry relative="1" as="geometry" />
        </mxCell>
        <mxCell id="S8iGS64HaeXEKzcs_TdU-1806" value="Блюда на воке" style="rounded=1;whiteSpace=wrap;html=1;" vertex="1" parent="1">
          <mxGeometry x="360" y="-10" width="120" height="60" as="geometry" />
        </mxCell>
        <mxCell id="S8iGS64HaeXEKzcs_TdU-1814" value="" style="edgeStyle=orthogonalEdgeStyle;rounded=0;orthogonalLoop=1;jettySize=auto;html=1;" edge="1" parent="1" source="S8iGS64HaeXEKzcs_TdU-1807" target="S8iGS64HaeXEKzcs_TdU-1813">
          <mxGeometry relative="1" as="geometry" />
        </mxCell>
        <mxCell id="S8iGS64HaeXEKzcs_TdU-1807" value="Соберите свой ВОК" style="rounded=1;whiteSpace=wrap;html=1;" vertex="1" parent="1">
          <mxGeometry x="360" y="-80" width="120" height="60" as="geometry" />
        </mxCell>
        <mxCell id="S8iGS64HaeXEKzcs_TdU-1816" value="" style="edgeStyle=orthogonalEdgeStyle;rounded=0;orthogonalLoop=1;jettySize=auto;html=1;" edge="1" parent="1" source="S8iGS64HaeXEKzcs_TdU-1808" target="S8iGS64HaeXEKzcs_TdU-1815">
          <mxGeometry relative="1" as="geometry" />
        </mxCell>
        <mxCell id="S8iGS64HaeXEKzcs_TdU-1808" value="Японская кухня" style="rounded=1;whiteSpace=wrap;html=1;" vertex="1" parent="1">
          <mxGeometry x="360" y="-150" width="120" height="60" as="geometry" />
        </mxCell>
        <mxCell id="S8iGS64HaeXEKzcs_TdU-1818" value="" style="edgeStyle=orthogonalEdgeStyle;rounded=0;orthogonalLoop=1;jettySize=auto;html=1;" edge="1" parent="1" source="S8iGS64HaeXEKzcs_TdU-1809" target="S8iGS64HaeXEKzcs_TdU-1817">
          <mxGeometry relative="1" as="geometry" />
        </mxCell>
        <mxCell id="S8iGS64HaeXEKzcs_TdU-1820" value="" style="edgeStyle=orthogonalEdgeStyle;rounded=0;orthogonalLoop=1;jettySize=auto;html=1;" edge="1" parent="1" source="S8iGS64HaeXEKzcs_TdU-1809" target="S8iGS64HaeXEKzcs_TdU-1819">
          <mxGeometry relative="1" as="geometry" />
        </mxCell>
        <mxCell id="S8iGS64HaeXEKzcs_TdU-1809" value="Доставка" style="rounded=1;whiteSpace=wrap;html=1;" vertex="1" parent="1">
          <mxGeometry x="360" y="-300" width="120" height="140" as="geometry" />
        </mxCell>
        <mxCell id="S8iGS64HaeXEKzcs_TdU-1822" value="" style="edgeStyle=orthogonalEdgeStyle;rounded=0;orthogonalLoop=1;jettySize=auto;html=1;" edge="1" parent="1" source="S8iGS64HaeXEKzcs_TdU-1810" target="S8iGS64HaeXEKzcs_TdU-1821">
          <mxGeometry relative="1" as="geometry" />
        </mxCell>
        <mxCell id="S8iGS64HaeXEKzcs_TdU-1824" value="" style="edgeStyle=orthogonalEdgeStyle;rounded=0;orthogonalLoop=1;jettySize=auto;html=1;" edge="1" parent="1" source="S8iGS64HaeXEKzcs_TdU-1810" target="S8iGS64HaeXEKzcs_TdU-1823">
          <mxGeometry relative="1" as="geometry" />
        </mxCell>
        <mxCell id="S8iGS64HaeXEKzcs_TdU-1810" value="Скачать мобильное приложение&amp;nbsp;&lt;br&gt;(IOS, Android)" style="rounded=1;whiteSpace=wrap;html=1;" vertex="1" parent="1">
          <mxGeometry x="360" y="-440" width="120" height="130" as="geometry" />
        </mxCell>
        <mxCell id="S8iGS64HaeXEKzcs_TdU-1811" value="Меню ВОК" style="whiteSpace=wrap;html=1;rounded=1;" vertex="1" parent="1">
          <mxGeometry x="560" y="-10" width="120" height="60" as="geometry" />
        </mxCell>
        <mxCell id="S8iGS64HaeXEKzcs_TdU-1813" value="Конструктор ВОК" style="whiteSpace=wrap;html=1;rounded=1;" vertex="1" parent="1">
          <mxGeometry x="560" y="-80" width="120" height="60" as="geometry" />
        </mxCell>
        <mxCell id="S8iGS64HaeXEKzcs_TdU-1815" value="Меню &quot;Суши&quot;" style="whiteSpace=wrap;html=1;rounded=1;" vertex="1" parent="1">
          <mxGeometry x="560" y="-150" width="120" height="60" as="geometry" />
        </mxCell>
        <mxCell id="S8iGS64HaeXEKzcs_TdU-1817" value="Раздел &quot;О доставке&quot;" style="whiteSpace=wrap;html=1;rounded=1;" vertex="1" parent="1">
          <mxGeometry x="560" y="-300" width="120" height="60" as="geometry" />
        </mxCell>
        <mxCell id="S8iGS64HaeXEKzcs_TdU-1819" value="Раздел &quot;Меню&quot;" style="whiteSpace=wrap;html=1;rounded=1;" vertex="1" parent="1">
          <mxGeometry x="560" y="-220" width="120" height="60" as="geometry" />
        </mxCell>
        <mxCell id="S8iGS64HaeXEKzcs_TdU-1821" value="IOS" style="whiteSpace=wrap;html=1;rounded=1;" vertex="1" parent="1">
          <mxGeometry x="560" y="-370" width="120" height="60" as="geometry" />
        </mxCell>
        <mxCell id="S8iGS64HaeXEKzcs_TdU-1823" value="Android&amp;nbsp;" style="whiteSpace=wrap;html=1;rounded=1;" vertex="1" parent="1">
          <mxGeometry x="560" y="-443.5" width="120" height="60" as="geometry" />
        </mxCell>
        <mxCell id="S8iGS64HaeXEKzcs_TdU-1826" value="" style="endArrow=none;html=1;rounded=0;" edge="1" parent="1">
          <mxGeometry width="50" height="50" relative="1" as="geometry">
            <mxPoint x="240" y="130" as="sourcePoint" />
            <mxPoint x="240" y="-520" as="targetPoint" />
          </mxGeometry>
        </mxCell>
        <mxCell id="S8iGS64HaeXEKzcs_TdU-1827" value="" style="endArrow=classic;html=1;rounded=0;entryX=-0.017;entryY=0.308;entryDx=0;entryDy=0;entryPerimeter=0;" edge="1" parent="1" target="S8iGS64HaeXEKzcs_TdU-1810">
          <mxGeometry width="50" height="50" relative="1" as="geometry">
            <mxPoint x="240" y="-400" as="sourcePoint" />
            <mxPoint x="290" y="-450" as="targetPoint" />
          </mxGeometry>
        </mxCell>
        <mxCell id="S8iGS64HaeXEKzcs_TdU-1828" value="" style="endArrow=classic;html=1;rounded=0;entryX=-0.017;entryY=0.308;entryDx=0;entryDy=0;entryPerimeter=0;" edge="1" parent="1">
          <mxGeometry width="50" height="50" relative="1" as="geometry">
            <mxPoint x="242.04" y="-230.5" as="sourcePoint" />
            <mxPoint x="360.00000000000006" y="-230.46000000000004" as="targetPoint" />
          </mxGeometry>
        </mxCell>
        <mxCell id="S8iGS64HaeXEKzcs_TdU-1829" value="" style="endArrow=classic;html=1;rounded=0;entryX=-0.017;entryY=0.308;entryDx=0;entryDy=0;entryPerimeter=0;" edge="1" parent="1">
          <mxGeometry width="50" height="50" relative="1" as="geometry">
            <mxPoint x="242.04" y="-120.5" as="sourcePoint" />
            <mxPoint x="360.00000000000006" y="-120.46000000000004" as="targetPoint" />
          </mxGeometry>
        </mxCell>
        <mxCell id="S8iGS64HaeXEKzcs_TdU-1830" value="" style="endArrow=classic;html=1;rounded=0;entryX=-0.017;entryY=0.308;entryDx=0;entryDy=0;entryPerimeter=0;" edge="1" parent="1">
          <mxGeometry width="50" height="50" relative="1" as="geometry">
            <mxPoint x="242.04" y="-50.5" as="sourcePoint" />
            <mxPoint x="360.00000000000006" y="-50.460000000000036" as="targetPoint" />
          </mxGeometry>
        </mxCell>
        <mxCell id="S8iGS64HaeXEKzcs_TdU-1831" value="" style="endArrow=classic;html=1;rounded=0;entryX=-0.017;entryY=0.308;entryDx=0;entryDy=0;entryPerimeter=0;" edge="1" parent="1">
          <mxGeometry width="50" height="50" relative="1" as="geometry">
            <mxPoint x="242.04" y="19.5" as="sourcePoint" />
            <mxPoint x="360.00000000000006" y="19.539999999999964" as="targetPoint" />
          </mxGeometry>
        </mxCell>
        <mxCell id="S8iGS64HaeXEKzcs_TdU-1832" value="" style="endArrow=classic;html=1;rounded=0;entryX=-0.017;entryY=0.308;entryDx=0;entryDy=0;entryPerimeter=0;" edge="1" parent="1">
          <mxGeometry width="50" height="50" relative="1" as="geometry">
            <mxPoint x="242.04" y="89.5" as="sourcePoint" />
            <mxPoint x="360.00000000000006" y="89.53999999999996" as="targetPoint" />
          </mxGeometry>
        </mxCell>
        <mxCell id="S8iGS64HaeXEKzcs_TdU-1835" value="" style="edgeStyle=orthogonalEdgeStyle;rounded=0;orthogonalLoop=1;jettySize=auto;html=1;" edge="1" parent="1" source="S8iGS64HaeXEKzcs_TdU-1833" target="S8iGS64HaeXEKzcs_TdU-1834">
          <mxGeometry relative="1" as="geometry" />
        </mxCell>
        <mxCell id="S8iGS64HaeXEKzcs_TdU-1833" value="Footer" style="rounded=1;whiteSpace=wrap;html=1;" vertex="1" parent="1">
          <mxGeometry x="360" y="-580" width="120" height="130" as="geometry" />
        </mxCell>
        <mxCell id="S8iGS64HaeXEKzcs_TdU-1834" value="О манеки&amp;nbsp;" style="whiteSpace=wrap;html=1;rounded=1;" vertex="1" parent="1">
          <mxGeometry x="560" y="-545" width="130" height="60" as="geometry" />
        </mxCell>
        <mxCell id="S8iGS64HaeXEKzcs_TdU-1836" value="Адрес/График" style="whiteSpace=wrap;html=1;rounded=1;" vertex="1" parent="1">
          <mxGeometry x="560" y="-970" width="130" height="60" as="geometry" />
        </mxCell>
        <mxCell id="S8iGS64HaeXEKzcs_TdU-1837" value="Конфиденциальность" style="whiteSpace=wrap;html=1;rounded=1;" vertex="1" parent="1">
          <mxGeometry x="560" y="-900" width="130" height="60" as="geometry" />
        </mxCell>
        <mxCell id="S8iGS64HaeXEKzcs_TdU-1838" value="Акции" style="whiteSpace=wrap;html=1;rounded=1;" vertex="1" parent="1">
          <mxGeometry x="560" y="-830" width="130" height="60" as="geometry" />
        </mxCell>
        <mxCell id="S8iGS64HaeXEKzcs_TdU-1839" value="Меню" style="whiteSpace=wrap;html=1;rounded=1;" vertex="1" parent="1">
          <mxGeometry x="560" y="-760" width="130" height="60" as="geometry" />
        </mxCell>
        <mxCell id="S8iGS64HaeXEKzcs_TdU-1840" value="О доставке" style="whiteSpace=wrap;html=1;rounded=1;" vertex="1" parent="1">
          <mxGeometry x="560" y="-690" width="130" height="60" as="geometry" />
        </mxCell>
        <mxCell id="S8iGS64HaeXEKzcs_TdU-1841" value="Вакансии" style="whiteSpace=wrap;html=1;rounded=1;" vertex="1" parent="1">
          <mxGeometry x="560" y="-620" width="130" height="60" as="geometry" />
        </mxCell>
        <mxCell id="S8iGS64HaeXEKzcs_TdU-1842" value="" style="endArrow=none;html=1;rounded=0;" edge="1" parent="1">
          <mxGeometry width="50" height="50" relative="1" as="geometry">
            <mxPoint x="440" y="-580" as="sourcePoint" />
            <mxPoint x="440" y="-1220" as="targetPoint" />
          </mxGeometry>
        </mxCell>
        <mxCell id="S8iGS64HaeXEKzcs_TdU-1843" value="" style="endArrow=classic;html=1;rounded=0;entryX=-0.017;entryY=0.308;entryDx=0;entryDy=0;entryPerimeter=0;" edge="1" parent="1">
          <mxGeometry width="50" height="50" relative="1" as="geometry">
            <mxPoint x="442.04" y="-590.5" as="sourcePoint" />
            <mxPoint x="560" y="-590.46" as="targetPoint" />
          </mxGeometry>
        </mxCell>
        <mxCell id="S8iGS64HaeXEKzcs_TdU-1844" value="" style="endArrow=classic;html=1;rounded=0;entryX=-0.017;entryY=0.308;entryDx=0;entryDy=0;entryPerimeter=0;" edge="1" parent="1">
          <mxGeometry width="50" height="50" relative="1" as="geometry">
            <mxPoint x="442.03999999999996" y="-940.5" as="sourcePoint" />
            <mxPoint x="560" y="-940.46" as="targetPoint" />
          </mxGeometry>
        </mxCell>
        <mxCell id="S8iGS64HaeXEKzcs_TdU-1845" value="" style="endArrow=classic;html=1;rounded=0;entryX=-0.017;entryY=0.308;entryDx=0;entryDy=0;entryPerimeter=0;" edge="1" parent="1">
          <mxGeometry width="50" height="50" relative="1" as="geometry">
            <mxPoint x="442.03999999999996" y="-870.5" as="sourcePoint" />
            <mxPoint x="560" y="-870.46" as="targetPoint" />
          </mxGeometry>
        </mxCell>
        <mxCell id="S8iGS64HaeXEKzcs_TdU-1846" value="" style="endArrow=classic;html=1;rounded=0;entryX=-0.017;entryY=0.308;entryDx=0;entryDy=0;entryPerimeter=0;" edge="1" parent="1">
          <mxGeometry width="50" height="50" relative="1" as="geometry">
            <mxPoint x="442.03999999999996" y="-800.5" as="sourcePoint" />
            <mxPoint x="560" y="-800.46" as="targetPoint" />
          </mxGeometry>
        </mxCell>
        <mxCell id="S8iGS64HaeXEKzcs_TdU-1847" value="" style="endArrow=classic;html=1;rounded=0;entryX=-0.017;entryY=0.308;entryDx=0;entryDy=0;entryPerimeter=0;" edge="1" parent="1">
          <mxGeometry width="50" height="50" relative="1" as="geometry">
            <mxPoint x="442.03999999999996" y="-730" as="sourcePoint" />
            <mxPoint x="560" y="-729.96" as="targetPoint" />
          </mxGeometry>
        </mxCell>
        <mxCell id="S8iGS64HaeXEKzcs_TdU-1848" value="" style="endArrow=classic;html=1;rounded=0;entryX=-0.017;entryY=0.308;entryDx=0;entryDy=0;entryPerimeter=0;" edge="1" parent="1">
          <mxGeometry width="50" height="50" relative="1" as="geometry">
            <mxPoint x="442.03999999999996" y="-660.5" as="sourcePoint" />
            <mxPoint x="560" y="-660.46" as="targetPoint" />
          </mxGeometry>
        </mxCell>
        <mxCell id="S8iGS64HaeXEKzcs_TdU-1849" value="Телефон" style="whiteSpace=wrap;html=1;rounded=1;" vertex="1" parent="1">
          <mxGeometry x="560" y="-1040" width="130" height="60" as="geometry" />
        </mxCell>
        <mxCell id="S8iGS64HaeXEKzcs_TdU-1850" value="Доставка бесплатно*" style="whiteSpace=wrap;html=1;rounded=1;" vertex="1" parent="1">
          <mxGeometry x="560" y="-1110" width="130" height="60" as="geometry" />
        </mxCell>
        <mxCell id="S8iGS64HaeXEKzcs_TdU-1861" value="" style="edgeStyle=orthogonalEdgeStyle;rounded=0;orthogonalLoop=1;jettySize=auto;html=1;" edge="1" parent="1" source="S8iGS64HaeXEKzcs_TdU-1851" target="S8iGS64HaeXEKzcs_TdU-1860">
          <mxGeometry relative="1" as="geometry" />
        </mxCell>
        <mxCell id="S8iGS64HaeXEKzcs_TdU-1851" value="Вконтакте" style="whiteSpace=wrap;html=1;rounded=1;" vertex="1" parent="1">
          <mxGeometry x="560" y="-1180" width="130" height="60" as="geometry" />
        </mxCell>
        <mxCell id="S8iGS64HaeXEKzcs_TdU-1859" value="" style="edgeStyle=orthogonalEdgeStyle;rounded=0;orthogonalLoop=1;jettySize=auto;html=1;" edge="1" parent="1" source="S8iGS64HaeXEKzcs_TdU-1852" target="S8iGS64HaeXEKzcs_TdU-1858">
          <mxGeometry relative="1" as="geometry" />
        </mxCell>
        <mxCell id="S8iGS64HaeXEKzcs_TdU-1852" value="Mail" style="whiteSpace=wrap;html=1;rounded=1;" vertex="1" parent="1">
          <mxGeometry x="560" y="-1250" width="130" height="60" as="geometry" />
        </mxCell>
        <mxCell id="S8iGS64HaeXEKzcs_TdU-1853" value="" style="endArrow=classic;html=1;rounded=0;entryX=-0.017;entryY=0.308;entryDx=0;entryDy=0;entryPerimeter=0;" edge="1" parent="1">
          <mxGeometry width="50" height="50" relative="1" as="geometry">
            <mxPoint x="442.03999999999996" y="-1150" as="sourcePoint" />
            <mxPoint x="560" y="-1149.96" as="targetPoint" />
          </mxGeometry>
        </mxCell>
        <mxCell id="S8iGS64HaeXEKzcs_TdU-1854" value="" style="endArrow=classic;html=1;rounded=0;entryX=-0.017;entryY=0.308;entryDx=0;entryDy=0;entryPerimeter=0;" edge="1" parent="1">
          <mxGeometry width="50" height="50" relative="1" as="geometry">
            <mxPoint x="442.03999999999996" y="-1080.5" as="sourcePoint" />
            <mxPoint x="560" y="-1080.46" as="targetPoint" />
          </mxGeometry>
        </mxCell>
        <mxCell id="S8iGS64HaeXEKzcs_TdU-1855" value="" style="endArrow=classic;html=1;rounded=0;entryX=-0.017;entryY=0.308;entryDx=0;entryDy=0;entryPerimeter=0;" edge="1" parent="1">
          <mxGeometry width="50" height="50" relative="1" as="geometry">
            <mxPoint x="442.03999999999996" y="-1010.5" as="sourcePoint" />
            <mxPoint x="560" y="-1010.46" as="targetPoint" />
          </mxGeometry>
        </mxCell>
        <mxCell id="S8iGS64HaeXEKzcs_TdU-1856" value="" style="endArrow=classic;html=1;rounded=0;entryX=0;entryY=0.5;entryDx=0;entryDy=0;" edge="1" parent="1" target="S8iGS64HaeXEKzcs_TdU-1852">
          <mxGeometry width="50" height="50" relative="1" as="geometry">
            <mxPoint x="440" y="-1220" as="sourcePoint" />
            <mxPoint x="560" y="-1220.46" as="targetPoint" />
          </mxGeometry>
        </mxCell>
        <mxCell id="S8iGS64HaeXEKzcs_TdU-1857" value="" style="endArrow=classic;html=1;rounded=0;entryX=-0.017;entryY=0.308;entryDx=0;entryDy=0;entryPerimeter=0;" edge="1" parent="1">
          <mxGeometry width="50" height="50" relative="1" as="geometry">
            <mxPoint x="240" y="-520" as="sourcePoint" />
            <mxPoint x="360" y="-519.96" as="targetPoint" />
          </mxGeometry>
        </mxCell>
        <mxCell id="S8iGS64HaeXEKzcs_TdU-1858" value="Как вы хотите открыть это?&amp;nbsp;" style="whiteSpace=wrap;html=1;rounded=1;" vertex="1" parent="1">
          <mxGeometry x="775" y="-1250" width="120" height="60" as="geometry" />
        </mxCell>
        <mxCell id="S8iGS64HaeXEKzcs_TdU-1860" value="Страница &lt;a href=&quot;https://vk.com/maneki_yar&quot;&gt;Вконтакте&lt;/a&gt;" style="whiteSpace=wrap;html=1;rounded=1;" vertex="1" parent="1">
          <mxGeometry x="775" y="-1180" width="120" height="60" as="geometry" />
        </mxCell>
      </root>
    </mxGraphModel>
  </diagram>
</mxfile>
